<?xml version="1.0" encoding="utf-8"?>
<!-- Generator: Adobe Illustrator 16.0.0, SVG Export Plug-In . SVG Version: 6.00 Build 0)  -->
<!DOCTYPE svg PUBLIC "-//W3C//DTD SVG 1.1//EN" "http://www.w3.org/Graphics/SVG/1.1/DTD/svg11.dtd">
<svg version="1.1" id="_x37C_" xmlns="http://www.w3.org/2000/svg" xmlns:xlink="http://www.w3.org/1999/xlink" x="0px" y="0px"
	 width="150px" height="150px" viewBox="0 0 150 150" enable-background="new 0 0 150 150" xml:space="preserve">
<g>
	<g>
		<g>
			<circle fill-rule="evenodd" clip-rule="evenodd" fill="#005DAC" cx="102.291" cy="20.874" r="8.505"/>
			<circle fill-rule="evenodd" clip-rule="evenodd" fill="#005DAC" cx="135.971" cy="53.046" r="8.505"/>
			<circle fill-rule="evenodd" clip-rule="evenodd" fill="#005DAC" cx="135.971" cy="99.275" r="8.505"/>
			<circle fill-rule="evenodd" clip-rule="evenodd" fill="#005DAC" cx="103.303" cy="132.856" r="8.505"/>
			<circle fill-rule="evenodd" clip-rule="evenodd" fill="#005DAC" cx="58.119" cy="132.856" r="8.505"/>
			<path fill-rule="evenodd" clip-rule="evenodd" fill="#005DAC" d="M61.427,23.192l0.009,10.418c0,1.833-1.486,3.318-3.318,3.318
				c-1.833,0-3.318-1.486-3.318-3.318l-0.01-11.771c-0.409-0.553-0.65-1.237-0.65-1.978c0-1.84,1.491-3.332,3.331-3.332h45.833
				c1.84,0,3.332,1.492,3.332,3.332v14.718c0,1.84-1.491,3.332-3.332,3.332c-1.839,0-3.331-1.492-3.331-3.332V23.192H61.427
				L61.427,23.192z M122.166,56.773c-1.84,0-3.331-1.492-3.331-3.331c0-1.84,1.491-3.332,3.331-3.332h14.719
				c1.84,0,3.331,1.491,3.331,3.332v45.833c0,1.84-1.491,3.332-3.331,3.332h-30.25v30.25c0,1.84-1.491,3.332-3.332,3.332H58.12
				c-1.84,0-3.332-1.492-3.332-3.332c0-0.101,0.004-0.2,0.013-0.298l0.012-11.513c0-1.833,1.486-3.318,3.318-3.318
				s3.318,1.485,3.318,3.318l-0.009,8.48h38.531v-30.25c0-1.839,1.492-3.331,3.331-3.331h30.25v-39.17H122.166z"/>
			<circle fill-rule="evenodd" clip-rule="evenodd" fill="#005DAC" cx="58.119" cy="19.861" r="8.505"/>
		</g>
		<g>
			<path fill-rule="evenodd" clip-rule="evenodd" fill="#0088CC" d="M33.96,55.672c-5.692,11.518-7.76,26.216,0.078,34.243
				c14.489,14.84,59.301-1.218,68.923-24.527c0.077-0.185,0.504,0.049,0.565-0.144c-2.891,31.352-51.416,59.741-76.769,45.187
				C8.952,100.21,1.878,74.915,20.59,47.419c0.063,2.835,1.409,5.608,3.887,7.393C27.343,56.875,30.98,57.084,33.96,55.672z"/>
			<g>
				<path fill-rule="evenodd" clip-rule="evenodd" fill="#0088CC" d="M9.645,14.719l-4.631,6.432
					c-0.649,0.901-0.443,2.168,0.458,2.817l13.625,9.811c0.9,0.649,2.168,0.442,2.816-0.458l4.632-6.432
					c0.648-0.9,0.442-2.168-0.458-2.817l-13.624-9.811C11.561,13.612,10.293,13.819,9.645,14.719z"/>
				<path fill-rule="evenodd" clip-rule="evenodd" fill="#0088CC" d="M25.877,20.781l-9.968,13.842
					c-0.649,0.9-0.442,2.168,0.458,2.817l5.966,4.296c3.029-4.205,8.891-5.158,13.094-2.131c4.204,3.027,5.159,8.891,2.131,13.095
					l14.404,10.373c0.9,0.648,2.167,0.441,2.816-0.459l9.968-13.842c0.649-0.901,0.442-2.168-0.458-2.816L28.693,20.323
					C27.792,19.675,26.525,19.88,25.877,20.781z"/>
				<path fill-rule="evenodd" clip-rule="evenodd" fill="#0088CC" d="M63.52,44.171L50.026,62.909
					c-0.649,0.901-0.442,2.168,0.458,2.817l2.705,1.947c0.901,0.649,2.168,0.443,2.817-0.458L69.5,48.478
					c0.648-0.901,0.442-2.168-0.458-2.817l-2.705-1.948C65.436,43.064,64.168,43.27,63.52,44.171z"/>
				<path fill-rule="evenodd" clip-rule="evenodd" fill="#0088CC" d="M63.431,53.451l-4.631,6.432
					c-0.649,0.901-0.442,2.168,0.458,2.817l5.088,3.664c0.901,0.649,2.169,0.442,2.817-0.458l4.631-6.431
					c0.648-0.901,0.442-2.168-0.458-2.817l-5.088-3.664C65.347,52.345,64.079,52.551,63.431,53.451z"/>
				<path fill-rule="evenodd" clip-rule="evenodd" fill="#0088CC" d="M70.072,59.261l-3.658,5.08
					c-0.324,0.451-0.221,1.084,0.229,1.408l2.219,1.599c0.45,0.324,1.084,0.221,1.409-0.229l3.658-5.08
					c0.325-0.45,0.221-1.084-0.229-1.408l-2.219-1.598C71.03,58.707,70.396,58.81,70.072,59.261z"/>
				<circle fill-rule="evenodd" clip-rule="evenodd" fill="#0088CC" cx="29.946" cy="47.218" r="7.93"/>
			</g>
		</g>
		<path fill-rule="evenodd" clip-rule="evenodd" fill="#0088CC" d="M103.224,41.131c2.781,10.332,2.288,9.838,12.62,12.62
			c-10.333,2.781-9.838,2.288-12.62,12.62c-2.781-10.333-2.287-9.838-12.62-12.62C100.937,50.969,100.443,51.463,103.224,41.131z"/>
	</g>
	<g>
	</g>
</g>
</svg>
